<?xml version="1.0" encoding="UTF-8" standalone="no"?>
<!-- Created with Inkscape (http://www.inkscape.org/) -->

<svg
   width="1920"
   height="1080"
   viewBox="0 0 1920 1080"
   version="1.1"
   id="svg5"
   xml:space="preserve"
   inkscape:version="1.2.2 (732a01da63, 2022-12-09)"
   sodipodi:docname="icon.svg"
   xmlns:inkscape="http://www.inkscape.org/namespaces/inkscape"
   xmlns:sodipodi="http://sodipodi.sourceforge.net/DTD/sodipodi-0.dtd"
   xmlns="http://www.w3.org/2000/svg"
   xmlns:svg="http://www.w3.org/2000/svg"><sodipodi:namedview
     id="namedview7"
     pagecolor="#ffffff"
     bordercolor="#000000"
     borderopacity="0.25"
     inkscape:showpageshadow="2"
     inkscape:pageopacity="0.0"
     inkscape:pagecheckerboard="0"
     inkscape:deskcolor="#d1d1d1"
     inkscape:document-units="px"
     showgrid="false"
     inkscape:zoom="0.37222224"
     inkscape:cx="-482.23878"
     inkscape:cy="565.52236"
     inkscape:window-width="1920"
     inkscape:window-height="991"
     inkscape:window-x="-9"
     inkscape:window-y="-9"
     inkscape:window-maximized="1"
     inkscape:current-layer="layer1" /><defs
     id="defs2"><clipPath
       clipPathUnits="userSpaceOnUse"
       id="clipPath15175"><rect
         style="fill:#e8eceb;fill-opacity:1;stroke-width:2.13793"
         id="rect15177"
         width="1920"
         height="1080"
         x="0"
         y="1260.8319" /></clipPath><clipPath
       clipPathUnits="userSpaceOnUse"
       id="clipPath15914"><rect
         style="fill:#e8eceb;fill-opacity:1;stroke-width:2.13793"
         id="rect15916"
         width="1920"
         height="1080"
         x="0"
         y="2016.9084" /></clipPath><clipPath
       clipPathUnits="userSpaceOnUse"
       id="clipPath1604"><g
         id="g1608"><ellipse
           style="fill:none;stroke:#000000;stroke-width:5.33138"
           id="ellipse1606"
           cx="757.61188"
           cy="591.0448"
           rx="146.80803"
           ry="146.74931" /></g></clipPath></defs><g
     inkscape:label="Icon compte"
     inkscape:groupmode="layer"
     id="layer1"><path
       id="circle3775"
       clip-path="none"
       style="fill:#344d59;fill-opacity:1;stroke:none;stroke-width:15.5257;stroke-opacity:1"
       d="m -521.39551,541.68744 a 107.0899,107.0899 0 0 0 -107.08945,107.08946 107.0899,107.0899 0 0 0 43.83668,86.07966 160.63486,107.0899 0 0 0 -97.38005,98.35264 160.63486,107.0899 0 0 0 160.63282,107.08945 160.63486,107.0899 0 0 0 160.63554,-107.08945 160.63486,107.0899 0 0 0 -97.32011,-98.39895 107.0899,107.0899 0 0 0 43.77403,-86.03335 107.0899,107.0899 0 0 0 -107.08946,-107.08946 z"
       inkscape:label="icon_compte" /><rect
       style="fill:none;fill-opacity:1;stroke:none;stroke-width:3.68014"
       id="rect2107"
       width="454.02982"
       height="454.02982"
       x="-748.40906"
       y="513.97815"
       inkscape:export-filename="..\..\..\public\assets\profil-picto.png"
       inkscape:export-xdpi="25.16"
       inkscape:export-ydpi="25.16" /></g></svg>
