<?xml version="1.0" encoding="UTF-8" standalone="no"?>
<!-- Created with Inkscape (http://www.inkscape.org/) -->

<svg
   width="1920"
   height="1080"
   viewBox="0 0 1920 1080"
   version="1.1"
   id="svg5"
   xml:space="preserve"
   inkscape:version="1.2.2 (732a01da63, 2022-12-09)"
   sodipodi:docname="logo.svg"
   xmlns:inkscape="http://www.inkscape.org/namespaces/inkscape"
   xmlns:sodipodi="http://sodipodi.sourceforge.net/DTD/sodipodi-0.dtd"
   xmlns="http://www.w3.org/2000/svg"
   xmlns:svg="http://www.w3.org/2000/svg"><sodipodi:namedview
     id="namedview7"
     pagecolor="#ffffff"
     bordercolor="#000000"
     borderopacity="0.25"
     inkscape:showpageshadow="2"
     inkscape:pageopacity="0.0"
     inkscape:pagecheckerboard="0"
     inkscape:deskcolor="#d1d1d1"
     inkscape:document-units="px"
     showgrid="false"
     inkscape:zoom="0.26320087"
     inkscape:cx="662.99173"
     inkscape:cy="492.01965"
     inkscape:window-width="1920"
     inkscape:window-height="991"
     inkscape:window-x="-9"
     inkscape:window-y="-9"
     inkscape:window-maximized="1"
     inkscape:current-layer="layer1" /><defs
     id="defs2"><clipPath
       clipPathUnits="userSpaceOnUse"
       id="clipPath15175"><rect
         style="fill:#e8eceb;fill-opacity:1;stroke-width:2.13793"
         id="rect15177"
         width="1920"
         height="1080"
         x="0"
         y="1260.8319" /></clipPath><clipPath
       clipPathUnits="userSpaceOnUse"
       id="clipPath15914"><rect
         style="fill:#e8eceb;fill-opacity:1;stroke-width:2.13793"
         id="rect15916"
         width="1920"
         height="1080"
         x="0"
         y="2016.9084" /></clipPath></defs><g
     inkscape:label="Calque 1"
     inkscape:groupmode="layer"
     id="layer1"><path
       style="fill:#000000;stroke-width:0.817784"
       d="m 435.64218,721.26869 c -1.57424,-0.19782 -5.91226,-0.91322 -9.64004,-1.58998 -3.72779,-0.67663 -8.69583,-1.42584 -11.04008,-1.66505 -5.10091,-0.5202 -12.46342,-4.60032 -14.15219,-7.84254 -0.89906,-1.72616 -1.14786,-6.63645 -1.1395,-22.48904 0.0334,-63.27555 3.57145,-184.8914 5.85401,-201.22544 0.9173,-6.56425 0.89056,-6.81377 -0.93904,-8.76125 -1.03576,-1.10242 -3.38631,-2.50554 -5.22343,-3.11793 -3.67326,-1.2245 -4.27615,-2.59066 -4.22632,-9.57783 l 0.0263,-3.68004 6.68562,-0.81777 c 6.41665,-0.78501 6.63876,-0.88176 5.52006,-2.40527 -1.68362,-2.29297 -1.62812,-15.41076 0.0712,-16.82106 0.95143,-0.7897 1.01909,-1.28874 0.29329,-2.16331 -1.69855,-2.0466 0.095,-20.27377 2.977,-30.25509 1.02685,-3.55626 1.63104,-4.35953 3.87479,-5.1517 5.14643,-1.81678 36.33949,-2.765 57.44982,-1.74654 20.91365,1.00906 25.55365,1.65304 27.09429,3.75995 2.09592,2.86632 4.61877,15.01014 5.34992,25.75166 1.6834,24.73175 1.69274,25.41163 0.36847,26.87497 -0.84593,0.93463 -1.00029,1.76323 -0.48133,2.58387 0.42012,0.66449 0.76951,3.35335 0.7764,5.97537 l 0.0128,4.76744 5.52003,-0.67845 c 6.99122,-0.8593 48.85464,-0.88945 55.47267,-0.0404 l 4.97446,0.63836 0.78587,-6.19823 c 0.62173,-4.90364 0.55899,-6.38654 -0.30029,-7.09972 -1.25013,-1.03754 -1.29965,-12.03847 -0.0689,-15.31727 0.41019,-1.09275 0.88329,-6.42885 1.05132,-11.85788 0.17181,-5.5518 0.8864,-12.01784 1.63315,-14.77762 0.7302,-2.69865 1.67875,-6.22671 2.10785,-7.84005 0.51158,-1.92347 1.51144,-3.26665 2.90389,-3.90109 4.04349,-1.84225 18.85246,-2.77793 44.49875,-2.81136 25.91874,-0.0339 38.60238,0.87523 40.63921,2.91189 2.27209,2.27222 4.51281,13.88607 4.84917,25.13404 0.18156,6.07212 0.57338,11.77617 0.87066,12.67568 0.29729,0.89963 0.44341,4.76364 0.32471,8.58679 -0.16947,5.45751 -0.50772,7.12218 -1.57406,7.74697 -1.00869,0.59096 0.43055,1.01179 5.59296,1.63553 l 6.95117,0.83984 0.22054,5.72441 0.22054,5.72453 -5.12726,2.45332 c -5.70116,2.72804 -7.42462,5.37003 -5.7203,8.76908 2.14337,4.27453 5.88153,129.21474 5.90065,197.21608 l 0.008,28.52592 -2.94184,2.77451 c -4.04386,3.81375 -7.05321,5.22053 -12.0314,5.62375 -2.33458,0.18919 -7.37271,0.93776 -11.19586,1.66388 -9.38436,1.78204 -34.96378,2.46035 -46.74787,1.23977 -20.11677,-2.08379 -33.80061,-6.10723 -38.33505,-11.27174 l -2.51248,-2.86149 0.44729,-15.6612 c 0.24599,-8.61382 0.65691,-27.52938 0.91312,-42.03487 l 0.46587,-26.37358 h -26.67665 -26.67663 l 0.44083,5.52007 c 1.00206,12.54743 1.4419,78.54253 0.53479,80.23748 -1.15795,2.16358 -6.60797,5.3588 -12.79982,7.5041 -10.03803,3.47806 -22.42602,5.01997 -42.45943,5.28543 -10.34498,0.137 -20.09705,0.0874 -21.67129,-0.10967 z"
       id="path542"
       sodipodi:nodetypes="sscsssssscssssscsssssccsccsssssssccssssscccssccscccscsscccsscsss" /><g
       aria-label="Code"
       id="text546"
       style="font-weight:bold;font-size:162.184px;font-family:'Century Gothic';-inkscape-font-specification:'Century Gothic, Bold';font-variant-ligatures:none;stroke-width:19.2692"><path
         d="m 826.10812,444.88934 -15.52151,14.80879 q -15.83828,-16.70939 -35.63614,-16.70939 -16.70938,0 -28.19214,11.40357 -11.40356,11.40356 -11.40356,28.11295 0,11.64113 5.06825,20.66895 5.06825,9.02782 14.33364,14.17527 9.2654,5.14744 20.58977,5.14744 9.66135,0 17.65969,-3.56362 7.99833,-3.6428 17.58049,-13.14577 l 15.04637,15.6799 q -12.9082,12.59143 -24.39096,17.5013 -11.48275,4.83068 -26.21235,4.83068 -27.16266,0 -44.50558,-17.18454 -17.26372,-17.26373 -17.26372,-44.18881 0,-17.42211 7.83995,-30.96384 7.91914,-13.54173 22.56955,-21.77763 14.7296,-8.23591 31.67656,-8.23591 14.41284,0 27.71699,6.09774 13.38335,6.09774 23.0447,17.34292 z"
         id="path584" /><path
         d="m 883.60109,452.49171 q 12.19548,0 22.88632,6.09774 10.77003,6.09774 16.78857,16.551 6.01855,10.45327 6.01855,22.56956 0,12.19547 -6.09774,22.80712 -6.01854,10.61165 -16.47181,16.6302 -10.45327,5.93935 -23.0447,5.93935 -18.53079,0 -31.67656,-13.14577 -13.06659,-13.22497 -13.06659,-32.07252 0,-20.19381 14.8088,-33.65635 12.98739,-11.72033 29.85516,-11.72033 z m 0.31676,20.35219 q -10.0573,0 -16.78857,7.04804 -6.65208,6.96884 -6.65208,17.89726 0,11.24518 6.57288,18.21402 6.65208,6.96885 16.78858,6.96885 10.1365,0 16.86777,-7.04804 6.73127,-7.04804 6.73127,-18.13483 0,-11.0868 -6.65208,-17.97645 -6.57288,-6.96885 -16.86777,-6.96885 z"
         id="path586" /><path
         d="m 1010.6241,421.44868 h 21.5401 v 119.42064 h -21.5401 v -9.10701 q -6.3353,6.01855 -12.74981,8.71106 -6.33531,2.61331 -13.7793,2.61331 -16.70939,0 -28.90487,-12.9082 -12.19547,-12.98739 -12.19547,-32.2309 0,-19.95624 11.79952,-32.70605 11.79952,-12.74982 28.66729,-12.74982 7.76075,0 14.57122,2.93008 6.81042,2.93009 12.59142,8.79025 z m -22.72792,50.99927 q -10.05731,0 -16.70939,7.12722 -6.65208,7.04804 -6.65208,18.13484 0,11.16598 6.73127,18.3724 6.81046,7.20642 16.70939,7.20642 10.21569,0 16.94693,-7.04803 6.7313,-7.12723 6.7313,-18.60999 0,-11.24518 -6.7313,-18.21402 -6.73124,-6.96884 -17.02612,-6.96884 z"
         id="path588" /><path
         d="m 1140.3396,504.04532 h -69.4508 q 1.5046,9.1862 7.9983,14.65041 6.5729,5.38502 16.7094,5.38502 12.1163,0 20.8273,-8.47349 l 18.2141,8.55268 q -6.8105,9.66135 -16.3135,14.33364 -9.5029,4.5931 -22.5695,4.5931 -20.273,0 -33.0228,-12.74981 -12.7499,-12.82901 -12.7499,-32.07252 0,-19.71867 12.6707,-32.70606 12.7498,-13.06658 31.9141,-13.06658 20.3522,0 33.102,13.06658 12.7498,12.98739 12.7498,34.36908 z m -21.6984,-17.02615 q -2.1382,-7.20642 -8.4735,-11.72033 -6.2561,-4.51391 -14.5712,-4.51391 -9.0278,0 -15.8383,5.06825 -4.2763,3.16765 -7.9191,11.16599 z"
         id="path590" /></g><g
       aria-label="Watchtower
"
       id="text457"
       style="font-weight:bold;font-size:162.184px;font-family:'Century Gothic';-inkscape-font-specification:'Century Gothic, Bold';font-variant-ligatures:none;stroke-width:19.2692"><path
         d="m 710.1719,585.65806 h 21.85683 l 16.78858,74.36073 20.82734,-74.36073 h 18.4516 l 21.06491,74.36073 16.6302,-74.36073 h 21.85683 l -26.21236,116.49056 h -21.30249 l -21.46087,-75.31103 -21.06491,75.31103 h -21.06492 z"
         id="path593" /><path
         d="m 926.28526,615.98837 h 21.54006 v 86.16025 h -21.54006 v -9.10701 q -6.33531,6.01855 -12.74982,8.71105 -6.33531,2.61332 -13.7793,2.61332 -16.70939,0 -28.90487,-12.9082 -12.19548,-12.98739 -12.19548,-32.2309 0,-19.95624 11.79952,-32.70606 11.79952,-12.74981 28.66729,-12.74981 7.76076,0 14.57122,2.93008 6.81047,2.93008 12.59144,8.79025 z m -22.72794,17.73887 q -10.05731,0 -16.70938,7.12723 -6.65208,7.04804 -6.65208,18.13483 0,11.16599 6.73127,18.37241 6.81046,7.20642 16.70939,7.20642 10.21569,0 16.94696,-7.04804 6.73127,-7.12722 6.73127,-18.60998 0,-11.24518 -6.73127,-18.21402 -6.73127,-6.96885 -17.02616,-6.96885 z"
         id="path595" /><path
         d="m 972.29547,584.23261 h 21.54006 v 31.75576 h 12.82897 v 18.60998 h -12.82897 v 67.55027 h -21.54006 v -67.55027 h -11.0868 v -18.60998 h 11.0868 z"
         id="path597" /><path
         d="m 1102.6445,633.41048 -17.9764,9.89892 q -5.0683,-5.30582 -10.0573,-7.3648 -4.9099,-2.05897 -11.562,-2.05897 -12.1163,0 -19.6395,7.28561 -7.4439,7.20641 -7.4439,18.53079 0,11.0076 7.2064,17.97645 7.2064,6.96884 18.9267,6.96884 14.492,0 22.5696,-9.89893 l 17.0261,11.64114 q -13.8585,17.97645 -39.1205,17.97645 -22.728,0 -35.6362,-13.46254 -12.829,-13.46254 -12.829,-31.51818 0,-12.51224 6.2561,-23.0447 6.2562,-10.53246 17.4222,-16.551 11.2451,-6.01855 25.1036,-6.01855 12.829,0 23.0447,5.14744 10.2157,5.06825 16.7094,14.49203 z"
         id="path599" /><path
         d="m 1122.2048,582.72798 h 21.4609 v 41.97144 q 6.3353,-5.4642 12.7498,-8.15671 6.4145,-2.7717 12.9874,-2.7717 12.829,0 21.6192,8.86944 7.5232,7.68156 7.5232,22.56955 v 56.93862 h -21.3025 v -37.7743 q 0,-14.96718 -1.4254,-20.273 -1.4255,-5.30583 -4.9099,-7.91914 -3.4052,-2.61332 -8.4735,-2.61332 -6.5728,0 -11.3243,4.35553 -4.6723,4.35553 -6.4937,11.87871 -0.9503,3.88038 -0.9503,17.73887 v 34.60665 h -21.4609 z"
         id="path601" /><path
         d="m 1222.0652,584.23261 h 21.54 v 31.75576 h 12.829 v 18.60998 h -12.829 v 67.55027 h -21.54 v -67.55027 h -11.0868 v -18.60998 h 11.0868 z"
         id="path603" /><path
         d="m 1308.5422,613.77101 q 12.1955,0 22.8863,6.09774 10.77,6.09774 16.7886,16.551 6.0185,10.45327 6.0185,22.56955 0,12.19548 -6.0977,22.80713 -6.0185,10.61165 -16.4718,16.63019 -10.4533,5.93936 -23.0447,5.93936 -18.5308,0 -31.6766,-13.14577 -13.0666,-13.22497 -13.0666,-32.07252 0,-20.19381 14.8088,-33.65635 12.9874,-11.72033 29.8552,-11.72033 z m 0.3168,20.35219 q -10.0573,0 -16.7886,7.04804 -6.6521,6.96884 -6.6521,17.89725 0,11.24518 6.5729,18.21403 6.6521,6.96884 16.7886,6.96884 10.1365,0 16.8677,-7.04803 6.7313,-7.04804 6.7313,-18.13484 0,-11.08679 -6.6521,-17.97645 -6.5729,-6.96884 -16.8677,-6.96884 z"
         id="path605" /><path
         d="m 1362.3132,615.98837 h 21.1441 l 17.3429,49.01948 18.6892,-49.01948 h 12.9082 l 18.2932,48.46514 17.3429,-48.46514 h 21.3025 l -31.439,86.16025 h -13.7001 l -18.3724,-49.09867 -18.9268,49.09867 h -13.5417 z"
         id="path607" /><path
         d="m 1587.9295,665.32462 h -69.4509 q 1.5047,9.1862 7.9984,14.65041 6.5728,5.38501 16.7093,5.38501 12.1163,0 20.8274,-8.47348 l 18.214,8.55267 q -6.8105,9.66136 -16.3134,14.33365 -9.503,4.5931 -22.5696,4.5931 -20.273,0 -33.0228,-12.74982 -12.7498,-12.82901 -12.7498,-32.07252 0,-19.71866 12.6706,-32.70605 12.7498,-13.06658 31.9141,-13.06658 20.3522,0 33.1021,13.06658 12.7498,12.98739 12.7498,34.36907 z m -21.6985,-17.02616 q -2.1381,-7.20642 -8.4734,-11.72033 -6.2562,-4.51391 -14.5713,-4.51391 -9.0278,0 -15.8382,5.06825 -4.2764,3.16766 -7.9192,11.16599 z"
         id="path609" /><path
         d="m 1600.3625,615.98837 h 18.5308 v 10.84922 q 3.0093,-6.4145 7.9984,-9.74054 4.989,-3.32604 10.9284,-3.32604 4.1971,0 8.7902,2.21736 l -6.7312,18.60998 q -3.8012,-1.9006 -6.2562,-1.9006 -4.989,0 -8.4734,6.17693 -3.4053,6.17693 -3.4053,24.23258 l 0.079,4.19714 v 34.84422 h -21.4609 z"
         id="path611" /></g></g></svg>
